<svg width="215" height="39" viewBox="0 0 215 39" fill="none" xmlns="http://www.w3.org/2000/svg">
<path d="M79.1809 15.9559C79.1355 16.1173 77.3395 15.7946 74.1729 14.9213C70.9995 14.0653 66.4875 12.5906 60.9342 10.7653C55.3782 8.96392 48.7875 6.73459 41.3329 4.96926C37.6169 4.04126 33.6635 3.35192 29.5635 2.91192C25.4622 2.44659 21.1782 2.51726 16.9529 3.25059C12.7395 3.88126 8.90353 5.75192 6.09819 8.47859C4.70353 9.82526 3.56219 11.3946 2.98619 13.0919C2.38219 14.7773 2.31952 16.5386 2.74086 18.1746C2.88086 18.5759 3.02086 18.9746 3.16086 19.3719C3.30753 19.7666 3.57019 20.1186 3.76353 20.4919C4.11953 21.2639 4.76619 21.8693 5.26619 22.5439C5.82619 23.1786 6.49553 23.7079 7.08753 24.2906C7.39953 24.5586 7.75019 24.7373 8.07419 24.9666C8.39552 25.1959 8.73019 25.4013 9.09953 25.5493C11.9409 26.9626 15.0889 27.2306 17.8729 26.9813C23.5089 26.4733 27.8195 24.3413 30.4849 22.6346C33.1702 20.8773 34.3369 19.4719 34.5142 19.6213C34.6249 19.6893 33.7075 21.3613 31.0835 23.4679C28.4729 25.5119 24.1169 28.0333 18.0622 28.8359C15.0675 29.2199 11.5582 29.0879 8.1502 27.5186C7.71553 27.3533 7.30486 27.1199 6.90219 26.8533C6.50353 26.5919 6.06219 26.3613 5.69286 26.0626C4.99419 25.4239 4.22886 24.8359 3.56219 24.1146C2.94486 23.3413 2.20619 22.6559 1.72886 21.7173C1.47686 21.2639 1.16486 20.8413 0.964863 20.3493C0.778196 19.8479 0.591527 19.3439 0.403527 18.8359C-0.192473 16.7399 -0.13247 14.3893 0.61153 12.2546C1.32486 10.0959 2.68219 8.21726 4.28619 6.63859C7.48353 3.46259 11.8782 1.35326 16.4795 0.657256C21.0382 -0.136077 25.5689 -0.17341 29.8235 0.342589C34.0835 0.833256 38.1422 1.59992 41.9142 2.61059C49.4902 4.54526 56.0595 6.97459 61.5515 9.00659C67.0142 11.0919 71.4355 12.7799 74.4929 13.9466C77.5435 15.1133 79.2355 15.7679 79.1809 15.9559Z" class="baseColor"/>
<path d="M135.181 22.2735C135.226 22.1122 137.022 22.4349 140.189 23.3082C143.362 24.1642 147.874 25.6389 153.428 27.4642C158.984 29.2655 165.574 31.4949 173.029 33.2602C176.745 34.1882 180.698 34.8775 184.798 35.3175C188.9 35.7829 193.184 35.7122 197.409 34.9789C201.622 34.3482 205.458 32.4775 208.264 29.7509C209.658 28.4042 210.8 26.8349 211.376 25.1375C211.98 23.4522 212.042 21.6909 211.621 20.0549C211.481 19.6535 211.341 19.2549 211.201 18.8575C211.054 18.4629 210.792 18.1109 210.598 17.7375C210.242 16.9655 209.596 16.3602 209.096 15.6855C208.536 15.0509 207.866 14.5215 207.274 13.9389C206.962 13.6709 206.612 13.4922 206.288 13.2629C205.966 13.0335 205.632 12.8282 205.262 12.6802C202.421 11.2669 199.273 10.9989 196.489 11.2482C190.853 11.7562 186.542 13.8882 183.877 15.5949C181.192 17.3522 180.025 18.7575 179.848 18.6082C179.737 18.5402 180.654 16.8682 183.278 14.7615C185.889 12.7175 190.245 10.1962 196.3 9.39353C199.294 9.00953 202.804 9.14153 206.212 10.7109C206.646 10.8762 207.057 11.1095 207.46 11.3762C207.858 11.6375 208.3 11.8682 208.669 12.1669C209.368 12.8055 210.133 13.3935 210.8 14.1149C211.417 14.8882 212.156 15.5735 212.633 16.5122C212.885 16.9655 213.197 17.3882 213.397 17.8802C213.584 18.3815 213.77 18.8855 213.958 19.3935C214.554 21.4895 214.494 23.8402 213.75 25.9749C213.037 28.1335 211.68 30.0122 210.076 31.5909C206.878 34.7669 202.484 36.8762 197.882 37.5722C193.324 38.3655 188.793 38.4029 184.538 37.8869C180.278 37.3962 176.22 36.6295 172.448 35.6189C164.872 33.6842 158.302 31.2549 152.81 29.2229C147.348 27.1375 142.926 25.4495 139.869 24.2829C136.818 23.1162 135.126 22.4615 135.181 22.2735Z" class="baseColor"/>
<path d="M133.849 31.2904C133.905 31.4584 133.184 31.8438 131.769 32.3558C130.338 32.7411 128.141 33.1998 125.41 32.8424C122.69 32.5104 119.574 31.3198 116.58 29.3958C113.596 27.4544 110.702 24.8571 107.94 21.9758C105.164 19.0984 102.712 16.2478 100.382 13.8091C98.0556 11.3878 95.8289 9.35445 93.6889 8.30912C91.5649 7.19178 89.6089 7.38778 88.3222 7.79712C87.6542 7.95845 87.1769 8.22912 86.8169 8.35578C86.4582 8.48778 86.2369 8.52778 86.1822 8.45578C86.1262 8.38378 86.2396 8.20245 86.5182 7.91578C86.8009 7.63578 87.2182 7.20245 87.9169 6.85445C88.2502 6.65312 88.6342 6.44645 89.1049 6.32778C89.3369 6.25578 89.5796 6.18112 89.8316 6.10378C90.0902 6.05578 90.3649 6.03978 90.6502 6.00645C91.7929 5.86378 93.1142 6.10112 94.4262 6.59578C97.0782 7.61445 99.5982 9.69045 102.104 12.0944C104.604 14.5171 107.121 17.3331 109.836 20.1438C112.541 22.9664 115.244 25.4731 117.934 27.3784C120.634 29.2611 123.33 30.4811 125.728 31.0051C128.129 31.5491 130.157 31.4104 131.572 31.3478C132.968 31.1638 133.792 31.1131 133.849 31.2904Z" class="baseColor"/>
<path d="M141.514 28.6226C141.548 28.7879 141.036 29.0746 140.005 29.3093C138.978 29.5306 137.385 29.5799 135.525 29.0573C133.657 28.5559 131.65 27.4053 129.737 25.8719C127.82 24.3346 125.982 22.4199 124.14 20.4293C122.294 18.4413 120.588 16.5613 118.886 15.1119C117.202 13.6333 115.504 12.6613 113.964 12.2186C112.421 11.7959 111.061 11.8466 110.112 11.9533C109.164 12.0706 108.589 12.1346 108.514 11.9559C108.448 11.8013 108.885 11.4119 109.844 10.9626C110.797 10.5306 112.374 10.1293 114.342 10.3919C116.296 10.6679 118.472 11.6986 120.41 13.2213C122.388 14.7226 124.224 16.6466 126.073 18.6359C127.918 20.6319 129.626 22.5093 131.308 24.0173C132.985 25.5226 134.626 26.6653 136.145 27.2986C139.188 28.6119 141.458 28.1746 141.514 28.6226Z" class="accentColor"/>
<path d="M105.014 25.1226C105.048 25.2879 104.536 25.5746 103.505 25.8093C102.478 26.0306 100.885 26.0799 99.0248 25.5573C97.1568 25.0559 95.1502 23.9053 93.2368 22.3719C91.3195 20.8346 89.4822 18.9199 87.6395 16.9293C85.7942 14.9413 84.0875 13.0613 82.3862 11.6119C80.7022 10.1333 79.0035 9.16125 77.4635 8.71858C75.9208 8.29592 74.5608 8.34659 73.6115 8.45325C72.6635 8.57059 72.0888 8.63459 72.0142 8.45592C71.9475 8.30125 72.3848 7.91192 73.3448 7.46259C74.2968 7.03059 75.8742 6.62925 77.8422 6.89192C79.7955 7.16792 81.9715 8.19859 83.9102 9.72125C85.8875 11.2226 87.7235 13.1466 89.5728 15.1359C91.4182 17.1319 93.1262 19.0093 94.8075 20.5173C96.4848 22.0226 98.1262 23.1653 99.6448 23.7986C102.688 25.1119 104.958 24.6746 105.014 25.1226Z" class="accentColor"/>
</svg>
