<svg width="188" height="37" viewBox="0 0 188 37" fill="none" xmlns="http://www.w3.org/2000/svg">
<path d="M63.341 18.5452C63.2837 18.3732 62.3424 18.4426 60.7384 18.7079C59.1064 18.7986 56.769 19.0826 53.9277 18.5919C51.0904 18.1759 47.813 17.1252 44.2984 15.5052C40.7677 13.9306 36.9877 11.8306 32.709 10.0212C30.5797 9.12658 28.3557 8.38658 26.2597 7.87458C24.173 7.29725 22.1037 6.87725 20.1317 6.52925C16.1824 5.81325 12.525 5.73992 9.49305 5.87858C3.37971 6.27725 -0.104287 7.94258 0.00237969 8.19058C0.123713 8.62925 3.69838 7.65058 9.53305 7.74258C12.4424 7.84658 15.909 8.09992 19.6917 8.91858C21.581 9.31858 23.5557 9.76925 25.589 10.3679C27.6464 10.9106 29.6344 11.5946 31.6944 12.4546C35.785 14.1812 39.6264 16.2252 43.3397 17.7386C47.029 19.2919 50.6317 20.2452 53.7237 20.4452C56.8237 20.7239 59.3104 20.1279 60.9464 19.7119C62.5597 19.1226 63.3984 18.7172 63.341 18.5452Z" class="baseColor"/>
<path d="M83.1452 14.7492C83.0864 14.6816 82.7692 14.7917 82.2616 15.0424C81.7564 15.2732 80.9323 15.5186 79.9972 15.2896C79.0698 15.075 78.0552 14.2358 77.5875 12.9572C77.4288 12.3131 77.3103 11.5933 77.569 10.9305C77.842 10.3045 78.2465 9.65829 79.0342 9.2929C79.7428 8.86136 80.6811 8.63671 81.6869 8.509C82.6886 8.35929 83.7404 8.35948 84.6977 8.61538C86.6531 9.05698 88.0449 10.8721 88.3656 13.2274C88.7054 15.5367 88.1995 18.2782 86.7829 20.3409C86.0535 21.369 85.175 22.1343 83.9758 22.4049C83.4133 22.6421 82.7443 22.6096 82.1084 22.6901C81.4318 22.6097 80.7615 22.6429 80.0618 22.4549C77.2726 21.9002 74.565 20.6596 72.0564 19.3186C69.5382 17.9683 67.1741 16.4892 64.9144 15.0578C62.679 13.6361 60.449 12.1922 58.2406 11.1849C57.1544 10.6445 56.1062 10.1222 55.0985 9.62098C54.0352 9.2325 53.0132 8.85849 52.0387 8.50241C50.117 7.70897 48.2563 7.40394 46.6601 7.0454C45.8556 6.89154 45.12 6.67897 44.4248 6.61913C43.7292 6.55119 43.0945 6.49073 42.5225 6.43393C40.238 6.23268 38.9767 6.20947 38.9548 6.38813C38.9325 6.56943 40.1499 6.93921 42.3499 7.44577C42.9004 7.56843 43.5124 7.70403 44.1807 7.85191C44.8523 7.98408 45.5463 8.26139 46.3097 8.47737C47.8249 8.95895 49.5837 9.37237 51.38 10.2458C52.2925 10.6359 53.2487 11.0435 54.2457 11.4681C55.1978 11.9961 56.1901 12.5465 57.2177 13.116C59.3198 14.1787 61.3359 15.5816 63.5895 17.0955C65.8267 18.5899 68.2146 20.1486 70.8264 21.5896C73.4388 23.0159 76.2813 24.3832 79.5758 25.0457C80.3802 25.2559 81.2678 25.248 82.1089 25.3231C82.9898 25.2378 83.8675 25.2448 84.723 24.9187C85.5823 24.7139 86.4437 24.2742 87.1491 23.7147C87.8582 23.1583 88.4464 22.5038 88.9094 21.807C90.7481 18.9981 91.2425 15.7918 90.7614 12.8284C90.5068 11.3464 89.9149 9.8981 88.9397 8.72652C87.956 7.55927 86.5795 6.76828 85.215 6.49193C83.8455 6.19078 82.5446 6.27152 81.3734 6.49982C80.2005 6.7091 79.0343 7.03877 78.0403 7.71602C76.998 8.29464 76.2724 9.40113 75.9597 10.4602C75.6418 11.5725 75.8965 12.6274 76.2179 13.4997C77.0096 15.213 78.5187 16.1828 79.8246 16.3015C81.1408 16.4241 82.0694 15.896 82.5346 15.4991C83.0082 15.0669 83.2067 14.8172 83.1452 14.7492Z" class="accentColor"/>
<path d="M93.7929 36.7432C94.0876 36.4672 93.4182 35.3979 92.8129 33.6166C92.4769 32.7392 92.2582 31.6326 92.0516 30.4192C91.9036 29.1846 91.8316 27.8166 91.8876 26.3632C92.1476 20.4926 94.3022 15.9886 93.6382 15.6166C93.3422 15.4379 92.3662 16.3659 91.3729 18.2472C90.3756 20.1152 89.4236 22.9512 89.2542 26.2432C89.1889 27.8859 89.3476 29.4699 89.6662 30.8792C90.0436 32.2779 90.5129 33.5112 91.1342 34.4299C92.3276 36.3019 93.5729 36.9739 93.7929 36.7432Z" class="baseColor"/>
<path d="M124.524 18.687C124.581 18.515 125.522 18.5843 127.126 18.8497C128.758 18.9403 131.096 19.2243 133.937 18.7337C136.774 18.3177 140.052 17.267 143.566 15.647C147.097 14.0723 150.877 11.9723 155.156 10.163C157.285 9.26834 159.509 8.52834 161.605 8.01634C163.692 7.439 165.761 7.019 167.733 6.671C171.682 5.955 175.34 5.88167 178.372 6.02034C184.485 6.419 187.969 8.08434 187.862 8.33234C187.741 8.771 184.166 7.79234 178.332 7.88434C175.422 7.98834 171.956 8.24167 168.173 9.06034C166.284 9.46034 164.309 9.911 162.276 10.5097C160.218 11.0523 158.23 11.7363 156.17 12.5963C152.08 14.323 148.238 16.367 144.525 17.8803C140.836 19.4337 137.233 20.387 134.141 20.587C131.041 20.8657 128.554 20.2697 126.918 19.8537C125.305 19.2643 124.466 18.859 124.524 18.687Z" class="baseColor"/>
<path d="M104.72 14.891C104.778 14.8233 105.096 14.9335 105.603 15.1842C106.108 15.415 106.932 15.6604 107.868 15.4314C108.795 15.2168 109.81 14.3775 110.277 13.099C110.436 12.4548 110.554 11.735 110.296 11.0723C110.023 10.4462 109.618 9.80004 108.831 9.43465C108.122 9.00312 107.184 8.77847 106.178 8.65075C105.176 8.50104 104.124 8.50123 103.167 8.75713C101.212 9.19873 99.8198 11.0139 99.4991 13.3692C99.1594 15.6785 99.6652 18.4199 101.082 20.4827C101.811 21.5108 102.69 22.2761 103.889 22.5466C104.451 22.7838 105.12 22.7514 105.756 22.8318C106.433 22.7514 107.103 22.7847 107.803 22.5967C110.592 22.0419 113.3 20.8014 115.808 19.4603C118.327 18.11 120.691 16.6309 122.95 15.1995C125.186 13.7778 127.416 12.334 129.624 11.3267C130.71 10.7862 131.759 10.2639 132.766 9.76273C133.83 9.37426 134.852 9.00025 135.826 8.64416C137.748 7.85073 139.608 7.54569 141.205 7.18716C142.009 7.03329 142.745 6.82073 143.44 6.76089C144.136 6.69295 144.77 6.63248 145.342 6.57568C147.627 6.37444 148.888 6.35122 148.91 6.52988C148.932 6.71119 147.715 7.08097 145.515 7.58752C144.964 7.71019 144.352 7.84579 143.684 7.99367C143.012 8.12583 142.318 8.40315 141.555 8.61912C140.04 9.10071 138.281 9.51413 136.485 10.3875C135.572 10.7777 134.616 11.1852 133.619 11.6099C132.667 12.1379 131.675 12.6882 130.647 13.2577C128.545 14.3205 126.529 15.7233 124.275 17.2372C122.038 18.7317 119.65 20.2903 117.038 21.7314C114.426 23.1577 111.583 24.525 108.289 25.1874C107.485 25.3977 106.597 25.3898 105.756 25.4648C104.875 25.3796 103.997 25.3866 103.142 25.0604C102.282 24.8556 101.421 24.416 100.716 23.8564C100.007 23.3 99.4184 22.6455 98.9553 21.9487C97.1167 19.1399 96.6222 15.9336 97.1033 12.9702C97.3579 11.4881 97.9499 10.0398 98.925 8.86827C99.9088 7.70102 101.285 6.91003 102.65 6.63368C104.019 6.33254 105.32 6.41327 106.491 6.64157C107.664 6.85085 108.83 7.18052 109.824 7.85777C110.867 8.43639 111.592 9.54288 111.905 10.602C112.223 11.7142 111.968 12.7691 111.647 13.6414C110.855 15.3547 109.346 16.3245 108.04 16.4432C106.724 16.5659 105.795 16.0378 105.33 15.6408C104.857 15.2087 104.658 14.959 104.72 14.891Z" class="accentColor"/>
<path d="M94.0717 36.885C93.777 36.609 94.4464 35.5397 95.0517 33.7583C95.3877 32.881 95.6064 31.7743 95.813 30.561C95.961 29.3263 96.033 27.9583 95.977 26.505C95.717 20.6343 93.5624 16.1303 94.2264 15.7583C94.5224 15.5797 95.4984 16.5077 96.4917 18.389C97.489 20.257 98.441 23.093 98.6104 26.385C98.6757 28.0277 98.517 29.6117 98.1984 31.021C97.821 32.4197 97.3517 33.653 96.7304 34.5717C95.537 36.4437 94.2917 37.1156 94.0717 36.885Z" class="baseColor"/>
</svg>
